:SAMPLES-PER-SECOND 30
:FRAME-RANGE 1-3535
:FULLY-SPECIFIED
:DEGREES
1658
root  -6.41764 36.4812 99.7057 -104.759 85.0363 -109.412
RightUpLeg  -19.9674 0.0554538 -9.51075
RightLeg  24.7799 -1.01463 -0.734434
RightFoot  -8.96926 -0.485204 20.2676
RightToes  5.38503e-012 1.26228e-014 -6.01869e-014
Spine  0.00615463 1.00741 6.83547
Spine1  5.43944 0.939958 0.69551
HEad  -10.9698 55.8785 -22.4052
LeftShoulder1  1.06307 -0.458194 -22.1635
LeftArm  31.3978 -3.51065 -59.3587
LeftForeArm  21.6645 -17.8465 -7.58715
LeftHand  -0.0750477 4.24232 5.78186
RightShoulder  1.4024 1.02729 26.3035
RightArm  -28.9359 -5.27756 40.4395
RightForeArm  61.8445 -5.30298 1.71034
RightHand  0.517092 -8.04235 -22.8523
LeftUpLeg  -13.9868 -3.0322 4.96278
LeftLeg  57.0446 3.54009 6.40324
LeftFoot  -21.0907 0.0312902 -1.1168
LeftToes  8.9788e-011 3.29689e-010 2.1201e-011
1659
root  -5.59935 36.7003 99.7631 -122.114 84.4398 -127.596
RightUpLeg  -18.119 -2.2965 -9.47603
RightLeg  23.2302 -0.535757 -0.472868
RightFoot  -9.67606 -0.359488 19.9832
RightToes  5.38503e-012 1.26228e-014 -6.01869e-014
Spine  0.323257 1.52411 7.37733
Spine1  5.05241 1.65791 0.0620874
HEad  -10.5992 53.7534 -21.304
LeftShoulder1  1.07476 -0.563251 -21.6702
LeftArm  29.8864 -1.85535 -59.6445
LeftForeArm  23.0521 -18.0768 -7.27761
LeftHand  -0.0653607 4.4414 5.68608
RightShoulder  1.54597 1.53804 25.8572
RightArm  -26.6059 -2.15012 44.1863
RightForeArm  61.2799 -5.55167 3.07255
RightHand  0.812554 -9.24925 -24.3899
LeftUpLeg  -17.8464 -0.541987 4.32397
LeftLeg  58.5886 3.2856 6.35267
LeftFoot  -20.7668 -0.0356233 -1.94301
LeftToes  8.9788e-011 3.29689e-010 2.1201e-011
1660
root  -4.78881 36.887 99.7536 -135.513 83.2813 -141.958
RightUpLeg  -16.2087 -2.67476 -9.57258
RightLeg  21.3209 -2.10202 -1.12298
RightFoot  -10.244 -0.266615 20.3123
RightToes  5.38503e-012 1.26228e-014 -6.01869e-014
Spine  0.497082 2.09473 8.20691
Spine1  4.94957 2.5484 -1.26369
HEad  -11.2901 50.8291 -20.8355
LeftShoulder1  1.1167 -0.808092 -20.9958
LeftArm  28.75 -0.647328 -59.7258
LeftForeArm  21.7478 -18.3259 -7.05039
LeftHand  -0.075478 4.24204 5.82829
RightShoulder  1.62314 1.85799 25.3627
RightArm  -24.971 1.45705 48.1376
RightForeArm  64.6199 -5.5456 3.74371
RightHand  0.474011 -7.74926 -23.518
LeftUpLeg  -21.6289 2.16139 3.66578
LeftLeg  58.4116 2.86532 5.5768
LeftFoot  -20.6836 -0.079302 -2.48854
LeftToes  8.9788e-011 3.29689e-010 2.1201e-011
1661
root  -4.05005 36.9683 99.7023 -144.521 81.0761 -151.988
RightUpLeg  -14.5424 -5.29592 -9.32395
RightLeg  19.9488 -1.89277 -0.996077
RightFoot  -11.0347 -0.130329 20.2586
RightToes  5.38503e-012 1.26228e-014 -6.01869e-014
Spine  1.88427 2.4762 9.09335
Spine1  3.54253 3.15273 -2.13361
HEad  -12.4141 47.3843 -20.9269
LeftShoulder1  1.16026 -1.00775 -20.7334
LeftArm  27.7621 -0.13661 -59.7045
LeftForeArm  20.0621 -18.2521 -7.13875
LeftHand  -0.103332 3.84858 6.62573
RightShoulder  1.73706 2.36852 24.5167
RightArm  -21.5536 4.64145 51.7953
RightForeArm  63.8996 -5.09583 5.39544
RightHand  0.558019 -8.13995 -23.6783
LeftUpLeg  -26.119 4.28196 3.62055
LeftLeg  57.7473 2.90737 5.50467
LeftFoot  -20.8293 -0.159922 -3.43149
LeftToes  8.9788e-011 3.29689e-010 2.1201e-011
1662
root  -3.33384 36.9907 99.5634 -150.673 78.0952 -159.445
RightUpLeg  -13.2359 -7.97757 -9.21318
RightLeg  19.0224 -2.22445 -1.07351
RightFoot  -11.9034 0.0227381 21.0383
RightToes  5.38503e-012 1.26228e-014 -6.01869e-014
Spine  2.69818 2.865 9.99633
Spine1  2.78214 3.62114 -2.5877
HEad  -13.7792 43.2994 -21.3123
LeftShoulder1  1.19824 -1.04305 -21.4328
LeftArm  26.1648 -2.01697 -59.7297
LeftForeArm  23.0156 -16.5245 -8.43088
LeftHand  -0.112727 3.94148 7.85109
RightShoulder  1.85755 2.96204 23.5017
RightArm  -20.2707 8.18702 55.9804
RightForeArm  64.2774 -3.25898 5.96067
RightHand  0.593493 -8.13508 -25.0716
LeftUpLeg  -31.0646 5.12228 3.58841
LeftLeg  56.202 3.69411 6.44158
LeftFoot  -20.3483 -0.100502 -2.82488
LeftToes  8.9788e-011 3.29689e-010 2.1201e-011
1663
root  -2.6005 36.9889 99.3249 -155.397 75.4545 -165.254
RightUpLeg  -11.7561 -8.24537 -9.80885
RightLeg  18.4802 -4.00782 -1.70882
RightFoot  -12.717 0.184092 22.3272
RightToes  5.38503e-012 1.26228e-014 -6.01869e-014
Spine  3.51883 3.27412 10.6869
Spine1  2.53605 4.21147 -3.41766
HEad  -14.7476 39.2074 -21.2435
LeftShoulder1  1.2889 -1.30288 -21.8745
LeftArm  25.5531 -4.50989 -60.4778
LeftForeArm  25.1462 -15.5049 -9.18022
LeftHand  -0.083592 4.401 7.8458
RightShoulder  2.11587 3.95504 23.001
RightArm  -18.2836 12.7649 59.5306
RightForeArm  64.2634 -2.43179 6.56792
RightHand  0.47307 -7.67997 -24.1201
LeftUpLeg  -35.3225 4.93303 3.37876
LeftLeg  53.646 4.68942 7.29418
LeftFoot  -20.1416 -0.130296 -3.26217
LeftToes  8.9788e-011 3.29689e-010 2.1201e-011
1664
root  -1.92867 36.7953 99.03 -157.522 73.498 -168.534
RightUpLeg  -11.2508 -8.93228 -10.0948
RightLeg  18.9235 -5.77675 -2.39871
RightFoot  -14.3331 0.498575 22.5772
RightToes  5.38503e-012 1.26228e-014 -6.01869e-014
Spine  5.07431 4.00299 11.2576
Spine1  1.65468 5.17505 -4.2751
HEad  -15.4506 35.7068 -21.8471
LeftShoulder1  1.60569 -2.43061 -21.9066
LeftArm  24.9609 -6.63665 -61.8102
LeftForeArm  25.5327 -15.1689 -9.40646
LeftHand  -0.122726 3.89355 8.42767
RightShoulder  2.03092 3.85833 22.1545
RightArm  -16.2528 18.1701 64.3054
RightForeArm  66.6114 -3.30954 6.60929
RightHand  0.492122 -7.79569 -23.8935
LeftUpLeg  -39.6331 4.19502 3.98201
LeftLeg  50.8542 4.98971 6.99643
LeftFoot  -20.7011 -0.134486 -3.15877
LeftToes  8.9788e-011 3.29689e-010 2.1201e-011
1665
root  -1.26912 36.5538 98.5851 -159.402 72.3417 -171.548
RightUpLeg  -11.2731 -9.48591 -11.1171
RightLeg  20.3087 -6.40052 -2.82956
RightFoot  -15.7646 0.801702 23.2542
RightToes  5.38503e-012 1.26228e-014 -6.01869e-014
Spine  6.54559 4.49586 11.5978
Spine1  1.6023 5.98659 -5.23066
HEad  -17.0835 32.595 -23.0756
LeftShoulder1  1.83583 -3.17148 -22.2835
LeftArm  27.8688 -8.76115 -62.6226
LeftForeArm  22.6019 -17.1299 -8.00783
LeftHand  -0.132371 3.86094 9.02681
RightShoulder  2.35499 5.37518 20.8773
RightArm  -12.7653 24.73 68.1455
RightForeArm  65.6866 -5.24931 6.99941
RightHand  0.508107 -7.88573 -23.7792
LeftUpLeg  -43.4727 3.2861 4.55764
LeftLeg  47.9845 5.56809 7.01562
LeftFoot  -20.1849 -0.167336 -3.72803
LeftToes  8.9788e-011 3.29689e-010 2.1201e-011
1666
root  -0.553213 36.233 98.0205 -160.185 71.9293 -173.484
RightUpLeg  -11.3036 -9.97948 -12.2871
RightLeg  21.531 -6.35571 -2.97123
RightFoot  -17.2763 1.14712 24.0776
RightToes  5.38503e-012 1.26228e-014 -6.01869e-014
Spine  8.14026 4.9057 12.0118
Spine1  1.2718 6.84036 -6.63748
HEad  -18.6359 30.274 -23.8749
LeftShoulder1  1.92119 -3.59 -21.7725
LeftArm  31.7326 -10.7507 -63.1928
LeftForeArm  19.7233 -19.876 -5.89012
LeftHand  -0.118295 4.12616 9.56927
RightShoulder  2.4931 6.50214 19.0508
RightArm  -10.4971 30.2781 73.5091
RightForeArm  67.8399 -5.87131 6.4513
RightHand  0.542631 -8.08789 -23.4961
LeftUpLeg  -47.0041 3.36448 5.022
LeftLeg  46.0638 6.46876 7.55617
LeftFoot  -20.0707 -0.168303 -3.78064
LeftToes  8.9788e-011 3.29689e-010 2.1201e-011
1667
root  0.288146 35.8787 97.2756 -159.439 71.8225 -173.522
RightUpLeg  -10.6155 -10.0397 -13.2977
RightLeg  22.2169 -6.08165 -2.94069
RightFoot  -18.474 1.49675 25.6422
RightToes  5.38503e-012 1.26228e-014 -6.01869e-014
Spine  9.47939 5.32859 12.8415
Spine1  1.284 7.73077 -8.00448
HEad  -20.107 27.9755 -24.1528
LeftShoulder1  1.94219 -3.98705 -20.4617
LeftArm  32.7135 -12.933 -63.0537
LeftForeArm  19.4383 -22.0675 -4.41753
LeftHand  -0.112052 4.18572 9.4043
RightShoulder  2.53908 7.66048 16.5987
RightArm  -9.35803 34.8313 78.289
RightForeArm  69.521 -5.58987 5.12367
RightHand  0.390239 -7.42768 -22.5936
LeftUpLeg  -49.8888 4.77989 5.19696
LeftLeg  45.742 6.35998 7.35826
LeftFoot  -20.7065 -0.183343 -3.75327
LeftToes  8.9788e-011 3.29689e-010 2.1201e-011
